<svg width="63" height="46" viewBox="0 0 63 46" fill="none" xmlns="http://www.w3.org/2000/svg">
<path d="M7.66815 44.9995V38.5595H8.78815L10.8281 42.7295L12.8581 38.5595H13.9781V44.9995H12.8981V40.3295L11.1581 43.8895H10.4981L8.74815 40.3295V44.9995H7.66815Z" fill="#FF0000"/>
<path d="M17.1865 45.0995C16.3532 45.0995 15.6832 44.9929 15.1765 44.7795V43.8195C15.4632 43.9262 15.7698 44.0129 16.0965 44.0795C16.4298 44.1462 16.7598 44.1795 17.0865 44.1795C17.5998 44.1795 17.9832 44.1195 18.2365 43.9995C18.4965 43.8795 18.6265 43.6395 18.6265 43.2795C18.6265 43.0595 18.5732 42.8829 18.4665 42.7495C18.3598 42.6162 18.1832 42.5029 17.9365 42.4095C17.6898 42.3095 17.3498 42.2062 16.9165 42.0995C16.2232 41.9195 15.7365 41.6929 15.4565 41.4195C15.1765 41.1395 15.0365 40.7562 15.0365 40.2695C15.0365 39.7029 15.2432 39.2595 15.6565 38.9395C16.0698 38.6195 16.6865 38.4595 17.5065 38.4595C17.8798 38.4595 18.2298 38.4862 18.5565 38.5395C18.8898 38.5929 19.1498 38.6529 19.3365 38.7195V39.6795C18.8298 39.4862 18.2698 39.3895 17.6565 39.3895C17.1765 39.3895 16.8032 39.4529 16.5365 39.5795C16.2698 39.7062 16.1365 39.9362 16.1365 40.2695C16.1365 40.4629 16.1832 40.6195 16.2765 40.7395C16.3698 40.8595 16.5298 40.9629 16.7565 41.0495C16.9898 41.1362 17.3098 41.2329 17.7165 41.3395C18.2432 41.4729 18.6498 41.6329 18.9365 41.8195C19.2298 41.9995 19.4332 42.2129 19.5465 42.4595C19.6665 42.6995 19.7265 42.9729 19.7265 43.2795C19.7265 43.8462 19.5165 44.2929 19.0965 44.6195C18.6765 44.9395 18.0398 45.0995 17.1865 45.0995Z" fill="#FF0000"/>
<path d="M20.7834 44.9995V38.5595H21.8734V44.9995H20.7834Z" fill="#FF0000"/>
<path d="M23.1369 44.9995V38.5595H26.2569C26.8969 38.5595 27.3702 38.7095 27.6769 39.0095C27.9836 39.3095 28.1369 39.7329 28.1369 40.2795C28.1369 40.6262 28.0669 40.9195 27.9269 41.1595C27.7869 41.3929 27.6002 41.5695 27.3669 41.6895C27.6802 41.7762 27.9269 41.9329 28.1069 42.1595C28.2936 42.3795 28.3869 42.7062 28.3869 43.1395C28.3869 43.7662 28.2169 44.2329 27.8769 44.5395C27.5436 44.8462 27.0502 44.9995 26.3969 44.9995H23.1369ZM24.2269 41.3095H26.1069C26.4736 41.3095 26.7336 41.2262 26.8869 41.0595C27.0469 40.8862 27.1269 40.6562 27.1269 40.3695C27.1269 40.0362 27.0469 39.7895 26.8869 39.6295C26.7269 39.4629 26.4269 39.3795 25.9869 39.3795H24.2269V41.3095ZM24.2269 44.1995H26.1669C26.5536 44.1995 26.8369 44.1195 27.0169 43.9595C27.1969 43.7929 27.2869 43.5062 27.2869 43.0995C27.2869 42.7662 27.1969 42.5195 27.0169 42.3595C26.8436 42.1929 26.5236 42.1095 26.0569 42.1095H24.2269V44.1995Z" fill="#FF0000"/>
<path d="M32.1955 45.0995C31.3088 45.0995 30.6188 44.8862 30.1255 44.4595C29.6388 44.0329 29.3955 43.4162 29.3955 42.6095V38.5595H30.4855V42.5695C30.4855 43.1095 30.6322 43.5129 30.9255 43.7795C31.2255 44.0462 31.6488 44.1795 32.1955 44.1795C32.7355 44.1795 33.1522 44.0462 33.4455 43.7795C33.7455 43.5129 33.8955 43.1095 33.8955 42.5695V38.5595H34.9755V42.6095C34.9755 43.4162 34.7322 44.0329 34.2455 44.4595C33.7588 44.8862 33.0755 45.0995 32.1955 45.0995Z" fill="#FF0000"/>
<path d="M39.1838 45.0995C38.1238 45.0995 37.3238 44.8129 36.7838 44.2395C36.2504 43.6662 35.9838 42.8895 35.9838 41.9095C35.9838 41.2029 36.1004 40.5929 36.3338 40.0795C36.5671 39.5595 36.9204 39.1595 37.3938 38.8795C37.8738 38.5995 38.4804 38.4595 39.2138 38.4595C39.5938 38.4595 39.9371 38.4862 40.2438 38.5395C40.5571 38.5862 40.8504 38.6562 41.1238 38.7495V39.6895C40.5771 39.4895 39.9704 39.3895 39.3038 39.3895C38.4838 39.3895 37.9071 39.6062 37.5738 40.0395C37.2471 40.4729 37.0838 41.0962 37.0838 41.9095C37.0838 42.6495 37.2571 43.2129 37.6038 43.5995C37.9504 43.9862 38.4871 44.1795 39.2138 44.1795C39.7871 44.1795 40.2504 44.1129 40.6038 43.9795V42.1795H38.9938V41.4695H41.5338V44.5695C41.3271 44.7029 41.0304 44.8262 40.6438 44.9395C40.2638 45.0462 39.7771 45.0995 39.1838 45.0995Z" fill="#FF0000"/>
<path d="M42.4 44.9995L44.86 38.5595H46.08L48.52 44.9995H47.4L46.76 43.3395H44.17L43.53 44.9995H42.4ZM44.34 42.4995H46.58L45.46 39.5495L44.34 42.4995Z" fill="#FF0000"/>
<path d="M50.9951 45.0995C50.1618 45.0995 49.4918 44.9929 48.9851 44.7795V43.8195C49.2718 43.9262 49.5784 44.0129 49.9051 44.0795C50.2384 44.1462 50.5684 44.1795 50.8951 44.1795C51.4084 44.1795 51.7918 44.1195 52.0451 43.9995C52.3051 43.8795 52.4351 43.6395 52.4351 43.2795C52.4351 43.0595 52.3818 42.8829 52.2751 42.7495C52.1684 42.6162 51.9918 42.5029 51.7451 42.4095C51.4984 42.3095 51.1584 42.2062 50.7251 42.0995C50.0318 41.9195 49.5451 41.6929 49.2651 41.4195C48.9851 41.1395 48.8451 40.7562 48.8451 40.2695C48.8451 39.7029 49.0518 39.2595 49.4651 38.9395C49.8784 38.6195 50.4951 38.4595 51.3151 38.4595C51.6884 38.4595 52.0384 38.4862 52.3651 38.5395C52.6984 38.5929 52.9584 38.6529 53.1451 38.7195V39.6795C52.6384 39.4862 52.0784 39.3895 51.4651 39.3895C50.9851 39.3895 50.6118 39.4529 50.3451 39.5795C50.0784 39.7062 49.9451 39.9362 49.9451 40.2695C49.9451 40.4629 49.9918 40.6195 50.0851 40.7395C50.1784 40.8595 50.3384 40.9629 50.5651 41.0495C50.7984 41.1362 51.1184 41.2329 51.5251 41.3395C52.0518 41.4729 52.4584 41.6329 52.7451 41.8195C53.0384 41.9995 53.2418 42.2129 53.3551 42.4595C53.4751 42.6995 53.5351 42.9729 53.5351 43.2795C53.5351 43.8462 53.3251 44.2929 52.9051 44.6195C52.4851 44.9395 51.8484 45.0995 50.9951 45.0995Z" fill="#FF0000"/>
<path d="M18.3176 0.851562L27.8442 17.3212L24.126 19.4639L18.5183 9.76923L17.0856 6.91834L18.2752 10.4417L20.117 20.0107L16.4612 22.1174L9.09209 15.7337L6.64232 12.9365L8.3995 15.6004L14.0072 25.2951L10.2765 27.4449L0.75 10.9753L5.99034 7.95541L15.6675 17.0351L16.6498 18.2157L16.1166 16.7762L13.0773 3.87142L18.3176 0.851562Z" fill="#FF0000"/>
<path d="M43.813 12.8174L49.613 9.83038C50.5775 9.33364 51.5379 9.00654 52.4941 8.84911C53.4589 8.68728 54.3498 8.77966 55.1668 9.12627C55.9879 9.45994 56.6633 10.1389 57.1929 11.163C57.5416 11.8373 57.7248 12.5049 57.7424 13.1659C57.7685 13.8226 57.6607 14.4293 57.419 14.9861C57.1815 15.5299 56.8481 15.9826 56.419 16.3441C56.8722 16.1756 57.3502 16.0861 57.8529 16.0758C58.3597 16.0526 58.8636 16.1281 59.3645 16.3024C59.8695 16.4639 60.3461 16.748 60.7943 17.1548C61.2467 17.5487 61.6494 18.0871 62.0025 18.7698C62.4924 19.7172 62.7116 20.6635 62.66 21.6087C62.6125 22.5411 62.2893 23.4209 61.6903 24.2482C61.0954 25.0625 60.2133 25.7708 59.0439 26.373L52.5526 29.7162L43.813 12.8174ZM54.7984 24.6849L56.5397 23.7881C57.0859 23.5068 57.4879 23.1971 57.7454 22.8591C58.0071 22.5082 58.1396 22.1373 58.1429 21.7466C58.1417 21.3472 58.0286 20.93 57.8035 20.4947C57.4504 19.8119 56.9788 19.4225 56.3887 19.3265C55.8027 19.2176 55.1299 19.3588 54.3702 19.75L52.693 20.6138L54.7984 24.6849ZM51.1437 17.6181L52.6929 16.8203C53.1453 16.5873 53.4789 16.3128 53.6938 15.9968C53.9172 15.6764 54.0307 15.3315 54.0343 14.9622C54.042 14.5799 53.9465 14.1968 53.7479 13.8127C53.3903 13.1214 52.9535 12.7574 52.4372 12.7206C51.9166 12.6753 51.3149 12.8285 50.632 13.1802L49.2236 13.9055L51.1437 17.6181Z" fill="#FF0000"/>
<path d="M40.1058 13.4704L43.7026 11.6209L52.96 29.5499L49.3633 31.3993L40.1058 13.4704Z" fill="#FF0000"/>
<path d="M39.3445 7.17477C40.3686 7.76601 41.1988 8.39494 41.8353 9.06155C42.4717 9.72816 42.9511 10.3207 43.2734 10.8392C43.5957 11.3577 43.7828 11.6873 43.8347 11.8281L40.3019 13.794C40.2263 13.6173 40.0813 13.3397 39.8669 12.9611C39.6609 12.5873 39.3804 12.1983 39.0255 11.7939C38.679 11.3944 38.2684 11.0576 37.7938 10.7836C37.1527 10.4135 36.5652 10.2294 36.0312 10.2313C35.5104 10.2298 35.1204 10.4534 34.8613 10.9021C34.6838 11.2096 34.6271 11.5481 34.6913 11.9176C34.7687 12.2836 34.959 12.7037 35.2624 13.178C35.5789 13.6489 36 14.2078 36.5257 14.8548C37.0122 15.4348 37.4374 16.0348 37.801 16.6548C38.1647 17.2747 38.4281 17.9143 38.5914 18.5737C38.7678 19.2296 38.8184 19.9014 38.7432 20.5893C38.668 21.2772 38.4288 21.9701 38.0258 22.6682C37.546 23.4992 36.9579 24.1237 36.2615 24.5415C35.5699 24.9511 34.8134 25.1847 33.992 25.2423C33.1789 25.3047 32.3425 25.2152 31.4828 24.9737C30.6267 24.7453 29.7989 24.4004 28.9997 23.9389C27.8674 23.2852 26.926 22.5699 26.1755 21.7932C25.4334 21.0212 24.874 20.327 24.4972 19.7106C24.1204 19.0942 23.9067 18.7049 23.856 18.5427L27.5233 16.4882C27.58 16.6207 27.7019 16.8517 27.889 17.1814C28.0845 17.5158 28.3376 17.8946 28.6483 18.3178C28.9638 18.7327 29.3187 19.137 29.713 19.5308C30.1156 19.9295 30.5459 20.261 31.0038 20.5254C31.7698 20.9676 32.4282 21.1539 32.9791 21.0841C33.5348 21.0061 33.9518 20.726 34.2301 20.2441C34.4364 19.8867 34.5004 19.4971 34.4221 19.0751C34.3438 18.6532 34.1351 18.1781 33.7962 17.65C33.462 17.1136 33.0143 16.495 32.4531 15.7943C31.8967 15.0852 31.422 14.3403 31.0292 13.5595C30.6446 12.7834 30.4366 11.9708 30.4052 11.1216C30.3737 10.2724 30.6243 9.38663 31.1568 8.4642C31.6894 7.54176 32.4081 6.89299 33.3129 6.51789C34.2309 6.13929 35.22 6.01231 36.2804 6.13697C37.349 6.26643 38.3704 6.61236 39.3445 7.17477Z" fill="#FF0000"/>
</svg>
